# xmcd
# 
# Track frame offsets:
#     150
#     20491
#     41152
#     62285
#     81071
#     104433
#     117597
#     135114
#     155245
#     169667
#     186259
# 
# Disc length: 2849
# 
# Revision: 2
# Processed by: cddbd v1.5.2PL0 Copyright (c) Steve Scherf et al.
# Submitted via: BonkEnc v1.0.6
# 
DISCID=8d0b1f0b
DTITLE=The Homemade Jamz Blues Band - Pay Me No Mind
DYEAR=2008
DGENRE=Blues
TTITLE0=Who Your Real Friends Are
TTITLE1=Voodoo Woman
TTITLE2=The World's Been Good To You
TTITLE3=Right Thang Wrong Woman
TTITLE4=Penny Waiting On Change
TTITLE5=Blues Concerto
TTITLE6=Time For Change
TTITLE7=Pay Me No Mind
TTITLE8=Jealous
TTITLE9=Shake Rag
TTITLE10=Boom Boom
EXTD=
EXTT0=
EXTT1=
EXTT2=
EXTT3=
EXTT4=
EXTT5=
EXTT6=
EXTT7=
EXTT8=
EXTT9=
EXTT10=
PLAYORDER=
